<?xml version="1.0" encoding="UTF-8" standalone="no"?>
<!-- Generator: Adobe Illustrator 27.3.1, SVG Export Plug-In . SVG Version: 6.00 Build 0)  -->

<svg
   version="1.1"
   id="svg24"
   x="0px"
   y="0px"
   viewBox="0 0 212 182"
   style="enable-background:new 0 0 212 182;"
   xml:space="preserve"
   sodipodi:docname="logo.svg"
   inkscape:version="1.3.2 (091e20e, 2023-11-25, custom)"
   xmlns:inkscape="http://www.inkscape.org/namespaces/inkscape"
   xmlns:sodipodi="http://sodipodi.sourceforge.net/DTD/sodipodi-0.dtd"
   xmlns="http://www.w3.org/2000/svg"
   xmlns:svg="http://www.w3.org/2000/svg"><defs
   id="defs1" />
<style
   type="text/css"
   id="style1">
	.st0{fill:#00A036;}
	.st1{fill:#CE1717;}
	.st2{fill:#191919;}
	.st3{font-family:'OpenSans-Regular';}
	.st4{font-size:21px;}
</style>
<sodipodi:namedview
   bordercolor="#000000"
   borderopacity="0.25"
   id="namedview24"
   inkscape:current-layer="svg24"
   inkscape:cx="63.274116"
   inkscape:cy="83.264565"
   inkscape:deskcolor="#d1d1d1"
   inkscape:pagecheckerboard="0"
   inkscape:pageopacity="0.0"
   inkscape:showpageshadow="2"
   inkscape:window-height="1009"
   inkscape:window-maximized="1"
   inkscape:window-width="1920"
   inkscape:window-x="-8"
   inkscape:window-y="-8"
   inkscape:zoom="2.8763737"
   pagecolor="#ffffff">
	</sodipodi:namedview>

<g
   id="g1"
   transform="matrix(1.9046636,0,0,1.9046636,-95.44201,-2.7139908)"><g
     id="g9"
     transform="translate(24)">
	<path
   id="rect1"
   class="st0"
   d="m 74,4 h 16 c 1.1,0 2,0.9 2,2 v 16 c 0,1.1 -0.9,2 -2,2 H 74 c -1.1,0 -2,-0.9 -2,-2 V 6 c 0,-1.1 0.9,-2 2,-2 z" />
	<path
   id="rect2"
   class="st0"
   d="m 98,4 h 16 c 1.1,0 2,0.9 2,2 v 16 c 0,1.1 -0.9,2 -2,2 H 98 c -1.1,0 -2,-0.9 -2,-2 V 6 c 0,-1.1 0.9,-2 2,-2 z" />
	<path
   id="rect3"
   class="st0"
   d="m 50,28 h 16 c 1.1,0 2,0.9 2,2 v 16 c 0,1.1 -0.9,2 -2,2 H 50 c -1.1,0 -2,-0.9 -2,-2 V 30 c 0,-1.1 0.9,-2 2,-2 z" />
	<path
   id="rect4"
   class="st0"
   d="m 74,28 h 16 c 1.1,0 2,0.9 2,2 v 16 c 0,1.1 -0.9,2 -2,2 H 74 c -1.1,0 -2,-0.9 -2,-2 V 30 c 0,-1.1 0.9,-2 2,-2 z" />
	<path
   id="rect5"
   class="st0"
   d="m 50,52 h 16 c 1.1,0 2,0.9 2,2 v 16 c 0,1.1 -0.9,2 -2,2 H 50 c -1.1,0 -2,-0.9 -2,-2 V 54 c 0,-1.1 0.9,-2 2,-2 z" />
	<path
   id="rect6"
   class="st0"
   d="m 74,52 h 16 c 1.1,0 2,0.9 2,2 v 16 c 0,1.1 -0.9,2 -2,2 H 74 c -1.1,0 -2,-0.9 -2,-2 V 54 c 0,-1.1 0.9,-2 2,-2 z" />
	<path
   id="rect7"
   class="st0"
   d="m 98,52 h 16 c 1.1,0 2,0.9 2,2 v 16 c 0,1.1 -0.9,2 -2,2 H 98 c -1.1,0 -2,-0.9 -2,-2 V 54 c 0,-1.1 0.9,-2 2,-2 z" />
	<path
   id="rect8"
   class="st0"
   d="m 50,76 h 16 c 1.1,0 2,0.9 2,2 v 16 c 0,1.1 -0.9,2 -2,2 H 50 c -1.1,0 -2,-0.9 -2,-2 V 78 c 0,-1.1 0.9,-2 2,-2 z" />
	<path
   id="rect9"
   class="st0"
   d="m 74,76 h 16 c 1.1,0 2,0.9 2,2 v 16 c 0,1.1 -0.9,2 -2,2 H 74 c -1.1,0 -2,-0.9 -2,-2 V 78 c 0,-1.1 0.9,-2 2,-2 z" />
</g><circle
     id="circle9"
     class="st1"
     cx="82"
     cy="14"
     r="11" /></g>



</svg>
